<svg width="190" height="37" viewBox="0 0 190 37" fill="none" xmlns="http://www.w3.org/2000/svg">
    <path d="M190 36.2281H184.43C183.7 36.2281 183.067 35.966 182.552 35.4512L174.876 27.7756H173.095V36.225H167.881V14.1123H185.273C186.131 14.1123 186.933 14.3276 187.65 14.7488C188.365 15.17 188.942 15.7442 189.36 16.4587C189.782 17.1732 189.997 17.972 189.997 18.8363V23.0578C189.997 23.9159 189.782 24.7178 189.36 25.4354C188.939 26.1468 188.365 26.7209 187.65 27.139C186.933 27.5603 186.131 27.7756 185.273 27.7756H182.243L185.476 31.0143H189.994V36.2281H190ZM172.109 26.7865H175.291L183.257 34.7491C183.585 35.0768 183.969 35.2359 184.434 35.2359H189.011V32.0034H185.073L179.862 26.7833H185.279C185.969 26.7833 186.583 26.6211 187.154 26.2841C187.722 25.9503 188.181 25.4947 188.512 24.9331C188.845 24.3621 189.011 23.7474 189.011 23.0578V18.8363C189.011 18.1529 188.842 17.5195 188.512 16.961C188.178 16.3932 187.722 15.9345 187.154 15.6006C186.583 15.2636 185.969 15.1014 185.279 15.1014H168.879V35.2359H172.112V26.7865H172.109ZM162.439 36.2281H149.765C148.907 36.2281 148.105 36.0128 147.388 35.5916C146.676 35.1704 146.105 34.5994 145.684 33.888C145.263 33.1672 145.048 32.3685 145.048 31.5104V18.8363C145.048 17.972 145.263 17.1732 145.684 16.4587C146.102 15.7442 146.676 15.17 147.388 14.7488C148.108 14.3276 148.907 14.1123 149.765 14.1123H162.439C163.297 14.1123 164.099 14.3276 164.817 14.7488C165.532 15.17 166.109 15.7442 166.527 16.4587C166.948 17.1732 167.163 17.972 167.163 18.8363V31.5104C167.163 32.3529 166.948 33.1423 166.527 33.863C166.109 34.5713 165.538 35.1485 164.836 35.576C164.131 36.0097 163.322 36.2281 162.439 36.2281ZM149.765 15.1014C149.085 15.1014 148.452 15.2699 147.887 15.6006C147.325 15.9345 146.87 16.39 146.536 16.9579C146.205 17.5195 146.037 18.1498 146.037 18.8331V31.5104C146.037 32.1906 146.205 32.824 146.536 33.3888C146.87 33.9535 147.325 34.4059 147.887 34.7398C148.452 35.0705 149.082 35.239 149.762 35.239H162.436C163.135 35.239 163.769 35.0674 164.318 34.7304C164.883 34.3872 165.338 33.9254 165.672 33.3607C166.006 32.7897 166.171 32.1844 166.171 31.5104V18.8363C166.171 18.1529 166.003 17.5195 165.672 16.961C165.338 16.3932 164.882 15.9345 164.315 15.6037C163.75 15.273 163.12 15.1045 162.439 15.1045H149.765V15.1014ZM144.324 36.225H126.926C126.068 36.225 125.266 36.0097 124.548 35.5885C123.837 35.1673 123.262 34.5963 122.844 33.8849C122.423 33.1641 122.208 32.3653 122.208 31.5073V14.1123H127.422V31.0143H144.324V36.2281V36.225ZM123.2 15.1014V31.5104C123.2 32.1906 123.369 32.824 123.699 33.3888C124.033 33.9504 124.486 34.4059 125.05 34.7398C125.621 35.0736 126.236 35.239 126.926 35.239H143.331V32.0065H126.429V15.1014H123.197H123.2ZM104.582 36.225H99.3682V14.1123H116.76C117.618 14.1123 118.42 14.3276 119.138 14.7488C119.852 15.17 120.429 15.7442 120.847 16.4587C121.269 17.1732 121.484 17.972 121.484 18.8363V23.0578C121.484 23.9159 121.269 24.7178 120.847 25.4354C120.426 26.1468 119.852 26.7209 119.138 27.139C118.42 27.5603 117.618 27.7756 116.76 27.7756H104.582V36.225ZM100.36 35.2359H103.593V26.7865H116.76C117.45 26.7865 118.064 26.6242 118.635 26.2872C119.203 25.9534 119.662 25.4978 119.993 24.9362C120.326 24.3652 120.492 23.7505 120.492 23.061V18.8394C120.492 18.1561 120.323 17.5227 119.993 16.9641C119.659 16.3963 119.203 15.9376 118.635 15.6069C118.064 15.2699 117.45 15.1076 116.76 15.1076H100.36V35.2359ZM162.932 32.0034H149.269V18.3401H162.932V32.0034ZM150.258 31.0143H161.94V19.3324H150.258V31.0143ZM185.769 23.554H172.106V18.3401H185.769V23.554ZM173.095 22.5649H184.777V19.3324H173.095V22.5649ZM117.253 23.554H103.59V18.3401H117.253V23.554ZM104.579 22.5649H116.261V19.3324H104.579V22.5649Z" fill="#FF6100"/>
    <path d="M41.1705 26.562V35.4202H37.4419V14.3496H50.2159V17.2358H41.4825H41.1705V17.5478V23.1111V23.4231H41.4825H48.1004V26.25H41.4825H41.1705V26.562Z" fill="white" stroke="white" stroke-width="0.624035"/>
    <path d="M57.7633 34.2495L57.7631 34.2493C56.1115 33.325 54.8065 32.0417 53.8388 30.4005C52.8744 28.7649 52.3906 26.9079 52.3906 24.8241C52.3906 22.7412 52.874 20.9152 53.8388 19.2789C54.8065 17.6377 56.1115 16.3544 57.7631 15.4301C59.4152 14.5055 61.2252 14.0408 63.2052 14.0408C65.186 14.0408 67.0233 14.5059 68.6616 15.4294C70.3015 16.3569 71.6 17.6372 72.555 19.2774C73.5079 20.914 73.9885 22.7624 73.9885 24.8241C73.9885 26.8866 73.5076 28.7659 72.5552 30.4016C71.5971 32.042 70.2956 33.3251 68.6473 34.2493C66.9951 35.1739 65.1851 35.6386 63.2052 35.6386C61.2251 35.6386 59.4121 35.1739 57.7633 34.2495ZM66.8151 31.4483C67.8649 30.8264 68.6815 29.9351 69.265 28.7878C69.8493 27.6387 70.1382 26.3158 70.1382 24.8241C70.1382 23.3327 69.8493 22.0122 69.2643 20.8748C68.6803 19.7362 67.863 18.8577 66.8132 18.2456C65.7642 17.6339 64.5603 17.3326 63.2052 17.3326C61.85 17.3326 60.6404 17.6339 59.5826 18.2449C58.5234 18.8568 57.6992 19.7354 57.1146 20.8751C56.5298 22.0153 56.2409 23.3356 56.2409 24.8241C56.2409 26.3126 56.5298 27.6387 57.1142 28.7878C57.6981 29.936 58.5216 30.8273 59.5807 31.449C60.6387 32.07 61.8489 32.3781 63.2052 32.3781C64.5615 32.3781 65.766 32.07 66.8151 31.4483Z" fill="white" stroke="white" stroke-width="0.624035"/>
    <path d="M85.6303 28.2592L85.3549 27.8305L85.0983 28.2707L80.9295 35.4202H76.7606L83.3016 24.9551L83.4066 24.7871L83.2993 24.6206L76.6765 14.3496H80.9388L85.5393 21.4799L85.8154 21.9077L86.0713 21.4675L90.2089 14.3496H94.378L87.8676 24.7837L87.763 24.9513L87.8698 25.1176L94.4939 35.4233H90.233L85.6303 28.2592Z" fill="white" stroke="white" stroke-width="0.624035"/>
    <path d="M27.0102 18.8102C27.7155 21.9869 27.5521 25.1052 26.1518 28.0647C23.9753 32.6667 20.2797 35.2981 15.2685 36.0171C11.6609 36.5349 8.22476 35.9371 5.21959 33.7789C1.62345 31.199 -0.126618 27.6303 0.00712291 23.1917C0.0505602 21.7377 0.447211 20.342 1.0359 19.008C1.15021 18.7474 1.25423 18.4833 1.36282 18.2193C1.49199 17.9964 1.6223 17.7746 1.75147 17.5528C3.1106 15.2369 4.90524 13.3211 7.07711 11.7505C7.33773 11.5619 7.59264 11.3047 7.94471 11.5242C8.29564 11.7425 8.18133 12.0683 8.11846 12.3941C7.33887 16.3789 9.12666 19.9899 12.8897 22.0486C13.0726 22.1492 13.2578 22.2486 13.4475 22.3344C13.9036 22.5413 14.2248 22.8476 14.1231 23.3894C14.0271 23.8981 13.6418 24.0719 13.1663 24.1313C12.2884 24.241 11.4688 24.5371 10.6835 24.9406C7.60521 26.5238 7.62236 30.4343 9.30041 32.3238C10.7075 33.907 13.2875 34.5448 15.5051 33.7801C19.4819 32.4084 21.1199 27.9252 18.9846 24.2479C18.6508 23.6729 18.2851 23.1174 17.8107 22.6441C17.7375 22.5618 17.6644 22.4795 17.5924 22.3984C16.5121 21.0438 15.1816 19.9247 14.0385 18.6273C12.7331 17.1459 11.5546 15.5856 11.0825 13.6286C10.3578 10.6189 11.1442 7.88347 12.7125 5.31153C12.8806 5.03719 13.0634 4.77085 13.2395 4.50108C13.651 4.0347 14.0636 3.56947 14.4752 3.10309C15.8091 1.87084 17.2426 0.784911 18.9503 0.111634C19.6568 -0.167279 20.0043 0.0784842 19.8671 0.826062C19.3916 3.40944 19.9357 5.80877 21.0993 8.11095C21.1759 8.26184 21.2194 8.42873 21.2777 8.58761C21.2914 8.7065 21.4034 8.69392 21.4743 8.73622C21.8938 9.66669 22.4562 10.5091 23.0597 11.3264C23.0997 11.475 23.1798 11.5962 23.2986 11.6922C23.8965 12.609 24.4966 13.5246 25.0921 14.4425C25.7631 15.477 26.2741 16.5904 26.7233 17.7346C26.8193 18.0935 26.9154 18.4513 27.0114 18.8102H27.0102Z" fill="#FF6100"/>
    <path fill-rule="evenodd" clip-rule="evenodd" d="M26.3096 28.0666C27.7098 25.1072 27.8733 21.9888 27.168 18.8122H27.1692C27.1212 18.6327 27.0731 18.4535 27.0251 18.2744C26.9771 18.0952 26.9291 17.916 26.8811 17.7365C26.4319 16.5923 25.9209 15.4789 25.2499 14.4444C24.853 13.8327 24.4541 13.222 24.0551 12.6113C23.8555 12.3056 23.6558 12 23.4564 11.6942C23.3375 11.5982 23.2575 11.477 23.2175 11.3284C22.614 10.5111 22.0516 9.66865 21.6321 8.73817C21.6112 8.72571 21.5867 8.71801 21.5623 8.71031C21.5623 8.71031 21.4451 8.67343 21.4354 8.58957C21.4172 8.53985 21.4004 8.48934 21.3836 8.43878C21.3467 8.32779 21.3097 8.21657 21.2571 8.11289C20.0935 5.81073 19.5494 3.4114 20.0249 0.828011C20.162 0.0804424 19.8145 -0.165324 19.1081 0.113582C17.4003 0.786862 15.9669 1.87279 14.6329 3.10504C14.4272 3.33822 14.2211 3.57114 14.0151 3.80404C13.8091 4.03694 13.603 4.26985 13.3973 4.50303C13.3424 4.58712 13.2869 4.67087 13.2313 4.75463C13.1087 4.9396 12.986 5.12466 12.8703 5.31348C12.4451 6.01076 12.0774 6.72007 11.7817 7.44359C11.7938 7.4236 11.8059 7.4036 11.8181 7.38363C11.9242 7.21068 12.0367 7.0412 12.1492 6.87178C12.2002 6.79505 12.2511 6.71833 12.3014 6.64131C12.4895 6.42845 12.6779 6.21584 12.8662 6.00322C13.0559 5.78919 13.2455 5.57515 13.4348 5.36085C14.6584 4.23221 15.9731 3.23756 17.5395 2.62089C18.1874 2.36543 18.5062 2.59053 18.3804 3.27525C17.9442 5.64145 18.4433 7.83907 19.5106 9.94771C19.5589 10.0427 19.5928 10.1445 19.6266 10.2462C19.642 10.2925 19.6574 10.3388 19.6742 10.3843C19.683 10.4611 19.7368 10.478 19.7905 10.4949C19.8129 10.5019 19.8353 10.509 19.8545 10.5204C20.2393 11.3727 20.7551 12.1443 21.3087 12.8929C21.3454 13.029 21.4188 13.14 21.5278 13.2279C21.7108 13.5081 21.8939 13.7881 22.0771 14.0681C22.443 14.6274 22.8088 15.1867 23.1728 15.747C23.7883 16.6945 24.2569 17.7143 24.669 18.7623C24.7127 18.9256 24.7565 19.0886 24.8002 19.2516C24.8445 19.4168 24.8889 19.582 24.9332 19.7475H24.9321C25.579 22.6571 25.4291 25.5132 24.1447 28.2239C22.1485 32.4391 18.7589 34.8492 14.1624 35.5078C10.8535 35.9821 7.70189 35.4345 4.94551 33.4578C4.9355 33.4506 4.92551 33.4434 4.91553 33.4362C5.06593 33.553 5.21988 33.6679 5.37738 33.7809C8.38255 35.939 11.8187 36.5369 15.4262 36.0191C20.4375 35.3001 24.1331 32.6687 26.3096 28.0666Z" fill="url(#paint0_linear_30_487)"/>
    <defs>
        <linearGradient id="paint0_linear_30_487" x1="16.2455" y1="0.00195312" x2="16.2455" y2="36.1941" gradientUnits="userSpaceOnUse">
            <stop stop-color="#FF6100"/>
            <stop offset="1" stop-color="#540099" stop-opacity="0.5"/>
        </linearGradient>
    </defs>
</svg>
