<svg width="258" height="338" viewBox="0 0 258 338" fill="none" xmlns="http://www.w3.org/2000/svg">
    <path d="M252.237 175.66C258.823 205.326 257.296 234.446 244.22 262.083C223.895 305.06 189.384 329.633 142.585 336.348C108.896 341.183 76.8074 335.6 48.7435 315.446C15.1606 291.354 -1.18243 258.027 0.0665177 216.577C0.472159 202.998 4.1763 189.965 9.67381 177.507C10.7413 175.073 11.7127 172.607 12.7268 170.142C13.933 168.06 15.15 165.989 16.3562 163.918C29.0485 142.291 45.8079 124.4 66.09 109.733C68.5238 107.972 70.9043 105.57 74.1921 107.619C77.4693 109.658 76.4018 112.701 75.8147 115.743C68.5345 152.955 85.2298 186.677 120.371 205.902C122.079 206.841 123.808 207.77 125.58 208.571C129.84 210.503 132.839 213.364 131.889 218.424C130.993 223.174 127.395 224.796 122.954 225.351C114.756 226.376 107.102 229.141 99.7689 232.909C71.0217 247.694 71.1818 284.212 86.8524 301.858C99.993 316.642 124.086 322.599 144.795 315.457C181.933 302.647 197.23 260.781 177.289 226.44C174.172 221.071 170.756 215.883 166.326 211.464C165.643 210.695 164.96 209.926 164.287 209.168C154.2 196.519 141.774 186.068 131.099 173.952C118.909 160.118 107.903 145.547 103.494 127.272C96.7265 99.165 104.071 73.6203 118.717 49.602C120.286 47.0401 121.994 44.5529 123.638 42.0336C127.481 37.6783 131.334 33.3337 135.177 28.9784C147.635 17.471 161.021 7.32994 176.969 1.0425C183.566 -1.56215 186.811 0.732929 185.53 7.71423C181.089 31.8392 186.17 54.2456 197.037 75.7445C197.753 77.1536 198.158 78.7121 198.703 80.1959C198.831 81.3061 199.877 81.1887 200.539 81.5836C204.456 90.2729 209.708 98.1402 215.345 105.773C215.718 107.16 216.465 108.292 217.576 109.189C223.159 117.75 228.763 126.3 234.324 134.872C240.59 144.533 245.362 154.93 249.557 165.615C250.454 168.967 251.351 172.309 252.247 175.66H252.237Z" fill="#FF6100"/>
    <path fill-rule="evenodd" clip-rule="evenodd" d="M245.693 262.101C258.77 234.464 260.297 205.343 253.71 175.678H253.721C253.273 174.002 252.824 172.329 252.376 170.655C251.928 168.982 251.479 167.309 251.031 165.633C246.836 154.948 242.064 144.55 235.798 134.89C232.091 129.177 228.366 123.474 224.64 117.77C222.776 114.916 220.911 112.062 219.049 109.206C217.939 108.31 217.192 107.178 216.818 105.79C211.182 98.1578 205.93 90.2905 202.012 81.6012C201.817 81.4849 201.589 81.4129 201.361 81.341C201.361 81.341 200.267 80.9966 200.176 80.2135C200.006 79.7492 199.849 79.2775 199.692 78.8054C199.348 77.7689 199.002 76.7302 198.511 75.762C187.644 54.2632 182.563 31.8568 187.004 7.73176C188.285 0.750554 185.039 -1.54455 178.442 1.06003C162.494 7.34749 149.108 17.4885 136.651 28.996C134.729 31.1735 132.805 33.3486 130.881 35.5236C128.957 37.6985 127.033 39.8736 125.111 42.0512C124.599 42.8364 124.08 43.6185 123.562 44.4007C122.416 46.1281 121.27 47.8562 120.19 49.6195C116.22 56.1311 112.786 62.755 110.024 69.5117C110.137 69.325 110.25 69.1383 110.364 68.9518C111.355 67.3366 112.406 65.7539 113.456 64.1719C113.932 63.4553 114.408 62.7389 114.878 62.0196C116.634 60.0317 118.393 58.0463 120.152 56.0608C121.923 54.062 123.694 52.0632 125.462 50.0619C136.888 39.522 149.166 30.2335 163.794 24.4747C169.845 22.089 172.821 24.1911 171.646 30.5854C167.573 52.6823 172.234 73.2049 182.201 92.8965C182.652 93.7833 182.968 94.7346 183.284 95.6842C183.428 96.1166 183.572 96.5485 183.728 96.9737C183.811 97.6909 184.313 97.8487 184.815 98.0064C185.024 98.0723 185.234 98.1381 185.412 98.2447C189.006 106.204 193.823 113.409 198.993 120.4C199.335 121.671 200.021 122.708 201.039 123.529C202.747 126.145 204.458 128.76 206.168 131.375C209.585 136.598 213.002 141.821 216.401 147.053C222.148 155.902 226.525 165.425 230.373 175.212C230.781 176.737 231.19 178.259 231.598 179.782C232.012 181.324 232.426 182.867 232.84 184.412H232.83C238.871 211.584 237.471 238.256 225.477 263.57C206.835 302.933 175.181 325.441 132.257 331.591C101.357 336.02 71.9247 330.906 46.1841 312.447C46.0906 312.38 45.9973 312.313 45.9041 312.246C47.3086 313.336 48.7463 314.409 50.217 315.464C78.281 335.618 110.369 341.201 144.059 336.365C190.857 329.651 225.369 305.078 245.693 262.101Z" fill="url(#paint0_linear_41_211)"/>
    <defs>
        <linearGradient id="paint0_linear_41_211" x1="151.71" y1="0.0175781" x2="151.71" y2="338" gradientUnits="userSpaceOnUse">
            <stop stop-color="#FF6100"/>
            <stop offset="1" stop-color="#540099" stop-opacity="0.5"/>
        </linearGradient>
    </defs>
</svg>
