<svg width="411" height="61" viewBox="0 0 411 61" fill="none" xmlns="http://www.w3.org/2000/svg">
    <path d="M411 60.4916H396.026C394.063 60.4916 392.36 59.7869 390.976 58.4027L370.34 37.7663H365.55V60.4832H351.532V1.03186H398.291C400.598 1.03186 402.754 1.61069 404.683 2.74317C406.604 3.87566 408.156 5.41919 409.28 7.34023C410.413 9.26126 410.992 11.4088 410.992 13.7325V25.0825C410.992 27.3894 410.413 29.5453 409.28 31.4748C408.148 33.3874 406.604 34.9309 404.683 36.055C402.754 37.1875 400.598 37.7663 398.291 37.7663H390.146L398.836 46.4739H410.983V60.4916H411ZM362.899 35.1071H371.455L392.872 56.5153C393.753 57.3961 394.785 57.8239 396.034 57.8239H408.341V49.1331H397.754L383.745 35.0987H398.308C400.162 35.0987 401.814 34.6625 403.349 33.7565C404.876 32.8589 406.109 31.6341 406.999 30.1242C407.896 28.589 408.341 26.9364 408.341 25.0825V13.7325C408.341 11.8953 407.888 10.1924 406.999 8.69082C406.101 7.16406 404.876 5.93091 403.349 5.03331C401.814 4.12732 400.162 3.6911 398.308 3.6911H354.216V57.8239H362.907V35.1071H362.899ZM336.902 60.4916H302.827C300.52 60.4916 298.364 59.9127 296.434 58.7802C294.522 57.6478 292.987 56.1126 291.854 54.2C290.722 52.2622 290.143 50.1146 290.143 47.8077V13.7325C290.143 11.4088 290.722 9.26126 291.854 7.34023C292.978 5.41919 294.522 3.87566 296.434 2.74317C298.372 1.61069 300.52 1.03186 302.827 1.03186H336.902C339.209 1.03186 341.365 1.61069 343.294 2.74317C345.215 3.87566 346.767 5.41919 347.891 7.34023C349.024 9.26126 349.603 11.4088 349.603 13.7325V47.8077C349.603 50.0727 349.024 52.195 347.891 54.1329C346.767 56.0371 345.232 57.589 343.345 58.7383C341.449 59.9043 339.276 60.4916 336.902 60.4916ZM302.827 3.6911C300.998 3.6911 299.295 4.1441 297.777 5.03331C296.267 5.93091 295.042 7.15567 294.144 8.68243C293.255 10.1924 292.802 11.8869 292.802 13.7241V47.8077C292.802 49.6365 293.255 51.3394 294.144 52.8578C295.042 54.3761 296.267 55.5925 297.777 56.4901C299.295 57.3793 300.99 57.8323 302.818 57.8323H336.894C338.773 57.8323 340.476 57.3709 341.952 56.4649C343.47 55.5422 344.695 54.3006 345.593 52.7823C346.49 51.2471 346.935 49.6197 346.935 47.8077V13.7325C346.935 11.8953 346.482 10.1924 345.593 8.69082C344.695 7.16406 343.47 5.93091 341.944 5.0417C340.425 4.15249 338.731 3.69949 336.902 3.69949H302.827V3.6911ZM288.197 60.4832H241.421C239.114 60.4832 236.958 59.9043 235.029 58.7719C233.116 57.6394 231.572 56.1042 230.448 54.1916C229.316 52.2538 228.737 50.1062 228.737 47.7993V1.03186H242.755V46.4739H288.197V60.4916V60.4832ZM231.405 3.6911V47.8077C231.405 49.6365 231.858 51.3394 232.747 52.8578C233.644 54.3677 234.861 55.5925 236.379 56.4901C237.914 57.3877 239.567 57.8323 241.421 57.8323H285.529V49.1415H240.087V3.6911H231.396H231.405ZM181.349 60.4832H167.331V1.03186H214.09C216.397 1.03186 218.553 1.61069 220.482 2.74317C222.403 3.87566 223.955 5.41919 225.079 7.34023C226.212 9.26126 226.791 11.4088 226.791 13.7325V25.0825C226.791 27.3894 226.212 29.5453 225.079 31.4748C223.947 33.3874 222.403 34.9309 220.482 36.055C218.553 37.1875 216.397 37.7663 214.09 37.7663H181.349V60.4832ZM169.999 57.8239H178.689V35.1071H214.09C215.944 35.1071 217.597 34.6709 219.132 33.7649C220.659 32.8673 221.892 31.6425 222.781 30.1325C223.679 28.5974 224.123 26.9448 224.123 25.0909V13.7409C224.123 11.9037 223.67 10.2008 222.781 8.69921C221.883 7.17245 220.659 5.9393 219.132 5.05009C217.597 4.1441 215.944 3.70788 214.09 3.70788H169.999V57.8239ZM338.227 49.1331H301.493V12.3987H338.227V49.1331ZM304.152 46.4739H335.56V15.0663H304.152V46.4739ZM399.625 26.4163H362.89V12.3987H399.625V26.4163ZM365.55 23.7571H396.957V15.0663H365.55V23.7571ZM215.416 26.4163H178.681V12.3987H215.416V26.4163ZM181.34 23.7571H212.748V15.0663H181.34V23.7571Z" fill="#FF6100"/>
    <path d="M10.7024 34.503V58.1576H1V1.83044H35.0214V9.26783H11.7024H10.7024V10.2678V25.225V26.225H11.7024H29.3338V33.503H11.7024H10.7024V34.503Z" fill="white" stroke="white" stroke-width="2"/>
    <path d="M55.5529 55.0306L55.5522 55.0302C51.1371 52.5593 47.6493 49.1294 45.0618 44.7412C42.4848 40.3708 41.1906 35.4069 41.1906 29.8305C41.1906 24.257 42.4835 19.3764 45.0618 15.0037C47.6493 10.6156 51.1371 7.18557 55.5522 4.7147C59.9692 2.24285 64.8082 1 70.1049 1C75.4046 1 80.3171 2.24414 84.6961 4.71273C89.0798 7.19233 92.5502 10.6139 95.1034 14.999C97.6498 19.3724 98.9355 24.3135 98.9355 29.8305C98.9355 35.3499 97.6488 40.3738 95.1041 44.7447C92.5422 49.1307 89.0637 52.5599 84.657 55.0306C80.2402 57.5022 75.4015 58.7449 70.1049 58.7449C64.8077 58.7449 59.9607 57.5019 55.5529 55.0306ZM79.8927 47.7788C82.7432 46.0899 84.9593 43.67 86.5407 40.5601C88.125 37.4447 88.9059 33.862 88.9059 29.8305C88.9059 25.7997 88.1252 22.2234 86.5386 19.1388C84.9553 16.0522 82.7372 13.6666 79.8866 12.0045C77.0384 10.3438 73.773 9.52792 70.1049 9.52792C66.4369 9.52792 63.1564 10.3437 60.2848 12.0025C57.4089 13.6637 55.1718 16.0496 53.5869 19.1398C52.001 22.2319 51.2201 25.8076 51.2201 29.8305C51.2201 33.8534 52.001 37.4445 53.5853 40.5601C55.1683 43.673 57.4031 46.093 60.2788 47.7809C63.1507 49.4666 66.4332 50.3009 70.1049 50.3009C73.7768 50.3009 77.0441 49.4665 79.8927 47.7788Z" fill="white" stroke="white" stroke-width="2"/>
    <path d="M130.532 38.979L129.649 37.6051L128.827 39.0158L117.665 58.1576H106.84L124.272 30.2682L124.609 29.7298L124.265 29.1963L106.619 1.83044H117.695L130.016 20.9269L130.901 22.2981L131.721 20.8873L142.799 1.83044H153.625L136.275 29.6367L135.939 30.174L136.282 30.7067L153.931 58.166H142.859L130.532 38.979Z" fill="white" stroke="white" stroke-width="2"/>
</svg>
